<svg width="28" height="28" viewBox="0 0 28 28" fill="none" xmlns="http://www.w3.org/2000/svg">
<path d="M22.9213 24.7368C20.6692 26.6266 17.8819 27.7561 14.9546 27.9648C12.0273 28.1734 9.10891 27.4506 6.61351 25.8991C4.11837 24.3474 2.17325 22.0458 1.05462 19.3207C-0.0640705 16.5961 -0.29979 13.5866 0.381033 10.7198C1.06186 7.85299 2.62472 5.27414 4.84762 3.35013C7.07053 1.42574 9.84072 0.253617 12.7648 0V13.9623C12.7627 14.3013 12.8953 14.627 13.1329 14.8676L22.9213 24.7368ZM24.7624 22.8878C26.5865 20.7248 27.7154 18.0575 28 15.2372H17.0939L24.7624 22.8878ZM15.3031 12.6874H28C27.6999 9.41349 26.2641 6.34943 23.9434 4.03076C21.6228 1.71187 18.5647 0.285312 15.3031 0.00032791L15.3031 12.6874Z" fill="#FCFAFF"/>
</svg>
