<svg width="40" height="40" viewBox="0 0 40 40" fill="none" xmlns="http://www.w3.org/2000/svg">
    <path d="M16.1382 15.0129C15.1881 15.0129 14.415 15.786 14.415 16.7367C14.415 17.6867 15.1881 18.4599 16.1382 18.4599C17.0882 18.4599 17.8614 17.6867 17.8614 16.7367C17.8614 15.786 17.0882 15.0129 16.1382 15.0129V15.0129Z" fill="#FCFAFF" />
    <path d="M9.39113 29.2528C9.39113 30.2045 8.61963 30.976 7.66792 30.976C6.7165 30.976 5.94501 30.2045 5.94501 29.2528C5.94501 28.3011 6.7165 27.5299 7.66792 27.5299C8.61963 27.5299 9.39113 28.3011 9.39113 29.2528Z" fill="#FCFAFF" />
    <path d="M24.291 24.3793C23.3403 24.3793 22.5672 25.1524 22.5672 26.1036C22.5672 27.0542 23.3398 27.8274 24.291 27.8274C25.241 27.8274 26.0133 27.0542 26.0133 26.1036C26.0133 25.1525 25.2408 24.3793 24.291 24.3793Z" fill="#FCFAFF" />
    <path d="M34.0566 10.7465C34.0566 11.6985 33.2848 12.47 32.3328 12.47C31.3808 12.47 30.609 11.6985 30.609 10.7465C30.609 9.79449 31.3808 9.02271 32.3328 9.02271C33.2848 9.02271 34.0566 9.79449 34.0566 10.7465Z" fill="#FCFAFF" />
    <path d="M35.488 0.000142856H4.51111C2.0237 0.000142856 0 2.02441 0 4.51211V35.4883C0 37.9763 2.0237 40 4.51111 40H35.488C37.9763 40 40 37.9763 40 35.488V4.51111C40 2.0237 37.9763 0 35.488 0V0.000142856ZM32.3338 14.3443C32.2662 14.3443 32.1993 14.3382 32.1326 14.3343L27.1614 23.9414C27.6164 24.5446 27.8896 25.2907 27.8896 26.1032C27.8896 28.087 26.2757 29.702 24.2922 29.702C22.3073 29.702 20.6935 28.087 20.6935 26.1032C20.6935 25.1582 21.0623 24.3002 21.6592 23.6582L18.1179 19.7383C17.5498 20.1139 16.8699 20.3346 16.1391 20.3346C15.6986 20.3346 15.2787 20.2514 14.888 20.1058L10.008 26.5257C10.7768 27.1855 11.2661 28.1627 11.2661 29.2525C11.2661 31.2374 9.65169 32.8513 7.66792 32.8513C5.68415 32.8513 4.06973 31.2374 4.06973 29.2525C4.06973 27.2682 5.68357 25.6543 7.66792 25.6543C7.87467 25.6543 8.07611 25.6755 8.27283 25.7098L13.359 19.0174C12.8479 18.396 12.5404 17.6017 12.5404 16.7361C12.5404 14.7518 14.1548 13.1374 16.1386 13.1374C18.1223 13.1374 19.7367 14.7518 19.7367 16.7361C19.7367 17.3056 19.5997 17.8418 19.3637 18.3212L23.276 22.6524C23.5986 22.5581 23.9393 22.5048 24.2905 22.5048C24.7724 22.5048 25.2325 22.6021 25.6529 22.7748L30.3303 13.7363C29.3686 13.0896 28.7336 11.9914 28.7336 10.7475C28.7336 8.76316 30.3474 7.14874 32.3323 7.14874C34.3167 7.14874 35.9322 8.76173 35.9322 10.7461C35.9324 12.7298 34.318 14.3443 32.3337 14.3443L32.3338 14.3443Z" fill="#FCFAFF" />
</svg>