<svg width="32" height="32" viewBox="0 0 32 32" fill="none" xmlns="http://www.w3.org/2000/svg">
<path d="M30.9215 12.5304H28.4627C28.1596 11.4863 27.7552 10.5093 27.2501 9.59999L29.0017 7.84836C29.4396 7.4104 29.4396 6.73679 29.0017 6.29878L25.6669 2.96401C25.229 2.52604 24.5554 2.52604 24.1174 2.96401L22.3657 4.71563C21.4562 4.21047 20.4795 3.80611 19.4353 3.50301L19.4356 1.07801C19.4356 0.471816 18.964 0 18.3576 0H13.642C13.0358 0 12.564 0.471563 12.564 1.07801V3.53688C11.5198 3.83998 10.5428 4.24436 9.63354 4.7495L7.88193 2.99787C7.44397 2.55991 6.77036 2.55991 6.33236 2.99787L2.99761 6.33264C2.55965 6.77061 2.55965 7.44421 2.99761 7.88223L4.74922 9.63385C4.24406 10.5434 3.8397 11.5201 3.53661 12.5643L1.078 12.5641C0.471812 12.5641 0 13.0356 0 13.6421V18.3577C0 18.9639 0.47156 19.4357 1.078 19.4357H3.53685C3.80635 20.4798 4.24433 21.4569 4.74946 22.3661L2.99785 24.1178C2.55989 24.5557 2.55989 25.2293 2.99785 25.6674L6.3326 29.0021C6.77056 29.4401 7.44416 29.4401 7.88217 29.0021L9.63378 27.2505C10.5433 27.7557 11.52 28.16 12.5642 28.4631V30.922C12.5642 31.5282 13.0358 32 13.6422 32H18.3578C18.964 32 19.4358 31.5284 19.4358 30.922V28.4631C20.4799 28.16 21.4569 27.7556 22.3662 27.2505L24.1178 29.0021C24.5558 29.4401 25.2294 29.4401 25.6674 29.0021L29.0022 25.6674C29.4401 25.2294 29.4401 24.5558 29.0022 24.1178L27.2505 22.3661C27.7557 21.4566 28.1601 20.4799 28.4632 19.4357H30.922C31.5282 19.4357 32 18.9641 32 18.3577V13.6421C31.9995 13.0356 31.528 12.5305 30.9215 12.5305L30.9215 12.5304ZM22.8374 18.5599C22.6015 18.5599 22.3995 18.4924 22.2313 18.3914C21.8943 18.2229 21.5576 18.1219 21.2207 18.1219H21.0186V21.5913C21.0186 22.0965 20.6145 22.5009 20.1091 22.5009H17.4818C17.3133 22.5009 17.1787 22.3662 17.1787 22.1978C17.1787 21.8947 17.2461 21.6252 17.4146 21.3557C17.5492 21.1536 17.6166 20.9177 17.6166 20.6482C17.6502 19.7725 16.943 18.9976 16.0671 18.964C15.1575 18.9304 14.4503 19.6715 14.4503 20.5471C14.4503 20.8166 14.5177 21.0861 14.6524 21.3218C14.787 21.5913 14.8883 21.8944 14.8883 22.1975C14.8883 22.366 14.7536 22.5006 14.5852 22.5006H11.9578C11.4527 22.5006 11.0483 22.0965 11.0483 21.5911L11.0481 18.1221H10.8122C10.4753 18.1221 10.1721 18.2232 9.86904 18.3916C9.66698 18.4927 9.39748 18.5601 9.128 18.5601C8.25228 18.5601 7.51124 17.819 7.54487 16.9433C7.57849 16.0676 8.35334 15.3602 9.22905 15.3937C9.46495 15.3937 9.66701 15.4612 9.83524 15.5622C10.1722 15.7307 10.5089 15.8317 10.8458 15.8317H11.0479L11.0481 12.362C11.0481 11.8569 11.4522 11.4525 11.9576 11.4525H14.8544V11.2166C14.8544 10.8797 14.7534 10.5765 14.5849 10.2734C14.4839 10.0714 14.4165 9.80189 14.4165 9.5324C14.4165 8.65668 15.1575 7.91563 16.0332 7.94926C16.8753 7.98285 17.6164 8.75773 17.5828 9.63345C17.5828 9.86936 17.5154 10.0714 17.4143 10.2396C17.2459 10.5766 17.1448 10.9133 17.1448 11.2502V11.4523H20.0416C20.5468 11.4523 20.9511 11.8564 20.9511 12.3618V15.8313H21.187C21.524 15.8313 21.8271 15.7302 22.1302 15.5618C22.3323 15.4607 22.6017 15.3933 22.8712 15.3933C23.7469 15.3933 24.488 16.1343 24.4544 17.0101C24.488 17.8862 23.6795 18.5937 22.8374 18.5599L22.8374 18.5599Z" fill="#FCFAFF"/>
</svg>
