<svg width="24" height="27" viewBox="0 0 24 27" fill="none" xmlns="http://www.w3.org/2000/svg">
<path fill-rule="evenodd" clip-rule="evenodd" d="M3.31502 2.3943H5.4324V3.64649C5.4324 4.86205 6.48935 5.8557 7.78012 5.8557H16.2197C17.5114 5.8557 18.5674 4.86111 18.5674 3.64649V2.3943H20.6848C22.508 2.3943 24 3.79828 24 5.51394V23.8804C24 25.596 22.508 27 20.6848 27H3.31523C1.492 27 0 25.596 0 23.8804V5.51394C0 3.79828 1.492 2.3943 3.31523 2.3943H3.31502ZM7.78012 0H16.2197C16.8877 0 17.4334 0.51444 17.4334 1.14212V3.64654C17.4334 4.27516 16.8867 4.78866 16.2197 4.78866H7.78012C7.11208 4.78866 6.56639 4.27422 6.56639 3.64654V1.14212C6.56639 0.513497 7.11308 0 7.78012 0ZM4.70403 10.7771C4.39051 10.7771 4.13609 10.5379 4.13609 10.2435C4.13609 9.94843 4.39028 9.70981 4.70403 9.70981H7.78713C8.10065 9.70981 8.35423 9.949 8.35423 10.2435C8.35423 10.5385 8.10004 10.7771 7.78713 10.7771H4.70403ZM4.70403 22.1566C4.39051 22.1566 4.13609 21.9174 4.13609 21.623C4.13609 21.3279 4.39028 21.0893 4.70403 21.0893H7.78713C8.10065 21.0893 8.35423 21.3285 8.35423 21.623C8.35423 21.918 8.10004 22.1566 7.78713 22.1566H4.70403ZM10.9198 22.1566C10.6063 22.1566 10.3518 21.9174 10.3518 21.623C10.3518 21.3279 10.606 21.0893 10.9198 21.0893H19.2945C19.608 21.0893 19.8624 21.3285 19.8624 21.623C19.8624 21.918 19.6082 22.1566 19.2945 22.1566H10.9198ZM4.70403 16.4669C4.39051 16.4669 4.13609 16.2277 4.13609 15.9332C4.13609 15.6382 4.39028 15.3996 4.70403 15.3996H7.78713C8.10065 15.3996 8.35423 15.6388 8.35423 15.9332C8.35423 16.2282 8.10004 16.4669 7.78713 16.4669H4.70403ZM10.9198 16.4669C10.6063 16.4669 10.3518 16.2277 10.3518 15.9332C10.3518 15.6382 10.606 15.3996 10.9198 15.3996H19.2945C19.608 15.3996 19.8624 15.6388 19.8624 15.9332C19.8624 16.2282 19.6082 16.4669 19.2945 16.4669H10.9198ZM10.9198 10.7771C10.6063 10.7771 10.3518 10.5379 10.3518 10.2435C10.3518 9.94843 10.606 9.70981 10.9198 9.70981H19.2945C19.608 9.70981 19.8624 9.949 19.8624 10.2435C19.8624 10.5385 19.6082 10.7771 19.2945 10.7771H10.9198Z" fill="#FCFAFF"/>
</svg>
