<svg width="1800" height="450" viewBox="0 0 1800 450" fill="none" xmlns="http://www.w3.org/2000/svg">
<rect width="1800" height="450" rx="20" fill="#FFBC25"/>
<path d="M644.088 198.809C639.196 198.809 635.216 202.789 635.216 207.684C635.216 212.575 639.196 216.556 644.088 216.556C648.979 216.556 652.96 212.575 652.96 207.684C652.96 202.789 648.979 198.809 644.088 198.809V198.809Z" fill="#FCFAFF"/>
<path d="M609.35 272.123C609.35 277.023 605.378 280.995 600.478 280.995C595.58 280.995 591.608 277.023 591.608 272.123C591.608 267.223 595.58 263.253 600.478 263.253C605.378 263.253 609.35 267.223 609.35 272.123Z" fill="#FCFAFF"/>
<path d="M686.063 247.032C681.168 247.032 677.188 251.012 677.188 255.91C677.188 260.804 681.165 264.785 686.063 264.785C690.954 264.785 694.93 260.804 694.93 255.91C694.93 251.013 690.953 247.032 686.063 247.032Z" fill="#FCFAFF"/>
<path d="M736.341 176.843C736.341 181.745 732.367 185.717 727.466 185.717C722.564 185.717 718.591 181.745 718.591 176.843C718.591 171.942 722.564 167.968 727.466 167.968C732.367 167.968 736.341 171.942 736.341 176.843Z" fill="#FCFAFF"/>
<path d="M743.711 121.516H584.226C571.419 121.516 561 131.938 561 144.746V304.227C561 317.036 571.419 327.455 584.226 327.455H743.711C756.522 327.455 766.941 317.036 766.941 304.226V144.74C766.941 131.934 756.522 121.515 743.711 121.515V121.516ZM727.471 195.367C727.123 195.367 726.778 195.335 726.435 195.315L700.841 244.777C703.184 247.883 704.59 251.724 704.59 255.908C704.59 266.121 696.281 274.436 686.069 274.436C675.85 274.436 667.541 266.121 667.541 255.908C667.541 251.042 669.44 246.625 672.513 243.32L654.28 223.138C651.356 225.071 647.855 226.208 644.093 226.208C641.824 226.208 639.662 225.78 637.651 225.03L612.527 258.083C616.484 261.48 619.004 266.511 619.004 272.122C619.004 282.341 610.692 290.65 600.478 290.65C590.265 290.65 581.953 282.341 581.953 272.122C581.953 261.905 590.262 253.596 600.478 253.596C601.543 253.596 602.58 253.706 603.593 253.882L629.779 219.426C627.147 216.227 625.564 212.137 625.564 207.681C625.564 197.465 633.876 189.153 644.09 189.153C654.303 189.153 662.615 197.465 662.615 207.681C662.615 210.613 661.91 213.374 660.694 215.842L680.837 238.141C682.498 237.655 684.252 237.381 686.06 237.381C688.541 237.381 690.91 237.882 693.075 238.771L717.156 192.237C712.204 188.907 708.935 183.253 708.935 176.849C708.935 166.632 717.244 158.32 727.463 158.32C737.68 158.32 745.997 166.625 745.997 176.841C745.999 187.055 737.687 195.367 727.47 195.367L727.471 195.367Z" fill="#FCFAFF"/>
<path d="M838.255 138.703V175H828.164V154.972L821.317 175H812.873L805.974 154.818V175H795.883V138.703H808.085L817.198 162.283L826.105 138.703H838.255ZM871.596 160.224C871.596 161.013 871.544 161.803 871.441 162.592H852.34C852.443 164.171 852.872 165.355 853.627 166.145C854.417 166.9 855.412 167.277 856.614 167.277C858.295 167.277 859.497 166.522 860.217 165.012H870.978C870.532 167.003 869.656 168.787 868.352 170.366C867.082 171.911 865.469 173.129 863.513 174.022C861.556 174.914 859.394 175.36 857.025 175.36C854.177 175.36 851.637 174.76 849.406 173.558C847.209 172.357 845.476 170.641 844.206 168.41C842.97 166.179 842.352 163.553 842.352 160.533C842.352 157.512 842.97 154.904 844.206 152.707C845.441 150.476 847.157 148.76 849.354 147.558C851.585 146.357 854.142 145.756 857.025 145.756C859.874 145.756 862.397 146.34 864.594 147.507C866.79 148.674 868.507 150.356 869.742 152.552C870.978 154.715 871.596 157.272 871.596 160.224ZM861.299 157.701C861.299 156.465 860.887 155.504 860.063 154.818C859.239 154.097 858.21 153.737 856.974 153.737C855.738 153.737 854.726 154.08 853.936 154.766C853.147 155.418 852.632 156.397 852.392 157.701H861.299ZM892.767 166.402V175H888.391C881.011 175 877.321 171.345 877.321 164.034V154.509H873.769V146.117H877.321V139.115H887.464V146.117H892.715V154.509H887.464V164.188C887.464 164.978 887.636 165.544 887.979 165.887C888.356 166.23 888.974 166.402 889.832 166.402H892.767ZM910.833 175.36C907.95 175.36 905.358 174.76 903.059 173.558C900.793 172.357 899.009 170.641 897.704 168.41C896.4 166.179 895.748 163.553 895.748 160.533C895.748 157.547 896.4 154.938 897.704 152.707C899.043 150.476 900.845 148.76 903.11 147.558C905.41 146.357 908.001 145.756 910.885 145.756C913.768 145.756 916.342 146.357 918.607 147.558C920.907 148.76 922.709 150.476 924.013 152.707C925.352 154.938 926.021 157.547 926.021 160.533C926.021 163.519 925.352 166.145 924.013 168.41C922.709 170.641 920.907 172.357 918.607 173.558C916.308 174.76 913.716 175.36 910.833 175.36ZM910.833 166.608C912.24 166.608 913.407 166.093 914.334 165.063C915.295 163.999 915.776 162.489 915.776 160.533C915.776 158.576 915.295 157.083 914.334 156.053C913.407 155.024 912.257 154.509 910.885 154.509C909.512 154.509 908.362 155.024 907.435 156.053C906.508 157.083 906.045 158.576 906.045 160.533C906.045 162.523 906.491 164.034 907.384 165.063C908.276 166.093 909.426 166.608 910.833 166.608ZM928.479 160.533C928.479 157.547 929.011 154.938 930.075 152.707C931.174 150.476 932.667 148.76 934.554 147.558C936.442 146.357 938.536 145.756 940.836 145.756C942.689 145.756 944.337 146.151 945.778 146.941C947.254 147.696 948.404 148.743 949.228 150.081V136.901H959.37V175H949.228V170.984C948.438 172.323 947.323 173.387 945.881 174.176C944.44 174.966 942.741 175.36 940.784 175.36C938.484 175.36 936.391 174.76 934.503 173.558C932.649 172.357 931.174 170.641 930.075 168.41C929.011 166.145 928.479 163.519 928.479 160.533ZM949.279 160.533C949.279 158.679 948.764 157.22 947.735 156.156C946.739 155.092 945.504 154.56 944.028 154.56C942.517 154.56 941.265 155.092 940.269 156.156C939.274 157.186 938.776 158.645 938.776 160.533C938.776 162.386 939.274 163.862 940.269 164.96C941.265 166.024 942.517 166.556 944.028 166.556C945.504 166.556 946.739 166.024 947.735 164.96C948.764 163.896 949.279 162.42 949.279 160.533ZM978.558 175.36C975.675 175.36 973.084 174.76 970.784 173.558C968.519 172.357 966.734 170.641 965.429 168.41C964.125 166.179 963.473 163.553 963.473 160.533C963.473 157.547 964.125 154.938 965.429 152.707C966.768 150.476 968.57 148.76 970.835 147.558C973.135 146.357 975.726 145.756 978.61 145.756C981.493 145.756 984.067 146.357 986.332 147.558C988.632 148.76 990.434 150.476 991.738 152.707C993.077 154.938 993.746 157.547 993.746 160.533C993.746 163.519 993.077 166.145 991.738 168.41C990.434 170.641 988.632 172.357 986.332 173.558C984.033 174.76 981.441 175.36 978.558 175.36ZM978.558 166.608C979.965 166.608 981.132 166.093 982.059 165.063C983.02 163.999 983.501 162.489 983.501 160.533C983.501 158.576 983.02 157.083 982.059 156.053C981.132 155.024 979.983 154.509 978.61 154.509C977.237 154.509 976.087 155.024 975.16 156.053C974.233 157.083 973.77 158.576 973.77 160.533C973.77 162.523 974.216 164.034 975.109 165.063C976.001 166.093 977.151 166.608 978.558 166.608ZM1007.94 136.901V175H997.852V136.901H1007.94ZM1027.13 175.36C1024.24 175.36 1021.65 174.76 1019.35 173.558C1017.09 172.357 1015.3 170.641 1014 168.41C1012.69 166.179 1012.04 163.553 1012.04 160.533C1012.04 157.547 1012.69 154.938 1014 152.707C1015.34 150.476 1017.14 148.76 1019.4 147.558C1021.7 146.357 1024.3 145.756 1027.18 145.756C1030.06 145.756 1032.64 146.357 1034.9 147.558C1037.2 148.76 1039 150.476 1040.31 152.707C1041.65 154.938 1042.32 157.547 1042.32 160.533C1042.32 163.519 1041.65 166.145 1040.31 168.41C1039 170.641 1037.2 172.357 1034.9 173.558C1032.6 174.76 1030.01 175.36 1027.13 175.36ZM1027.13 166.608C1028.53 166.608 1029.7 166.093 1030.63 165.063C1031.59 163.999 1032.07 162.489 1032.07 160.533C1032.07 158.576 1031.59 157.083 1030.63 156.053C1029.7 155.024 1028.55 154.509 1027.18 154.509C1025.81 154.509 1024.66 155.024 1023.73 156.053C1022.8 157.083 1022.34 158.576 1022.34 160.533C1022.34 162.523 1022.79 164.034 1023.68 165.063C1024.57 166.093 1025.72 166.608 1027.13 166.608ZM1057.08 145.756C1059.03 145.756 1060.73 146.151 1062.18 146.941C1063.65 147.73 1064.78 148.794 1065.57 150.133V146.117H1075.66V174.691C1075.66 177.403 1075.15 179.84 1074.12 182.002C1073.09 184.199 1071.48 185.949 1069.28 187.253C1067.12 188.558 1064.37 189.21 1061.04 189.21C1056.58 189.21 1053.01 188.163 1050.33 186.069C1047.66 183.976 1046.13 181.127 1045.75 177.523H1055.69C1055.89 178.45 1056.41 179.17 1057.23 179.685C1058.06 180.2 1059.12 180.457 1060.42 180.457C1063.86 180.457 1065.57 178.535 1065.57 174.691V170.984C1064.78 172.323 1063.65 173.387 1062.18 174.176C1060.73 174.966 1059.03 175.36 1057.08 175.36C1054.78 175.36 1052.68 174.76 1050.8 173.558C1048.94 172.357 1047.47 170.641 1046.37 168.41C1045.31 166.145 1044.77 163.519 1044.77 160.533C1044.77 157.547 1045.31 154.938 1046.37 152.707C1047.47 150.476 1048.94 148.76 1050.8 147.558C1052.68 146.357 1054.78 145.756 1057.08 145.756ZM1065.57 160.533C1065.57 158.679 1065.06 157.22 1064.03 156.156C1063.03 155.092 1061.8 154.56 1060.32 154.56C1058.81 154.56 1057.56 155.092 1056.56 156.156C1055.57 157.186 1055.07 158.645 1055.07 160.533C1055.07 162.386 1055.57 163.862 1056.56 164.96C1057.56 166.024 1058.81 166.556 1060.32 166.556C1061.8 166.556 1063.03 166.024 1064.03 164.96C1065.06 163.896 1065.57 162.42 1065.57 160.533ZM1092.54 146.117V175H1082.39V146.117H1092.54ZM1093.77 139.115L1080.9 144.16V137.313L1093.77 131.495V139.115ZM1097.62 160.533C1097.62 157.547 1098.15 154.938 1099.21 152.707C1100.31 150.476 1101.79 148.76 1103.64 147.558C1105.53 146.357 1107.62 145.756 1109.92 145.756C1111.91 145.756 1113.63 146.151 1115.07 146.941C1116.51 147.73 1117.63 148.794 1118.42 150.133V146.117H1128.51V175H1118.42V170.984C1117.63 172.323 1116.49 173.387 1115.02 174.176C1113.58 174.966 1111.88 175.36 1109.92 175.36C1107.62 175.36 1105.53 174.76 1103.64 173.558C1101.79 172.357 1100.31 170.641 1099.21 168.41C1098.15 166.145 1097.62 163.519 1097.62 160.533ZM1118.42 160.533C1118.42 158.679 1117.9 157.22 1116.87 156.156C1115.88 155.092 1114.64 154.56 1113.16 154.56C1111.65 154.56 1110.4 155.092 1109.41 156.156C1108.41 157.186 1107.91 158.645 1107.91 160.533C1107.91 162.386 1108.41 163.862 1109.41 164.96C1110.4 166.024 1111.65 166.556 1113.16 166.556C1114.64 166.556 1115.88 166.024 1116.87 164.96C1117.9 163.896 1118.42 162.42 1118.42 160.533ZM1146.56 175.36C1143.95 175.36 1141.62 174.931 1139.56 174.073C1137.54 173.181 1135.92 171.98 1134.72 170.469C1133.55 168.925 1132.9 167.191 1132.76 165.269H1142.55C1142.68 166.196 1143.11 166.917 1143.83 167.432C1144.55 167.947 1145.45 168.204 1146.51 168.204C1147.33 168.204 1147.99 168.032 1148.47 167.689C1148.95 167.346 1149.19 166.9 1149.19 166.35C1149.19 165.63 1148.79 165.098 1148 164.754C1147.21 164.411 1145.91 164.034 1144.09 163.622C1142.03 163.21 1140.32 162.747 1138.94 162.232C1137.57 161.717 1136.37 160.876 1135.34 159.709C1134.34 158.542 1133.85 156.963 1133.85 154.972C1133.85 153.256 1134.31 151.712 1135.24 150.339C1136.16 148.931 1137.52 147.816 1139.3 146.992C1141.12 146.168 1143.3 145.756 1145.84 145.756C1149.62 145.756 1152.59 146.683 1154.75 148.537C1156.91 150.39 1158.16 152.827 1158.51 155.848H1149.39C1149.22 154.921 1148.81 154.217 1148.16 153.737C1147.54 153.222 1146.7 152.964 1145.64 152.964C1144.81 152.964 1144.18 153.119 1143.73 153.428C1143.32 153.737 1143.11 154.166 1143.11 154.715C1143.11 155.401 1143.51 155.933 1144.3 156.311C1145.09 156.654 1146.36 157.015 1148.11 157.392C1150.2 157.838 1151.93 158.336 1153.31 158.885C1154.71 159.434 1155.93 160.327 1156.96 161.562C1158.03 162.764 1158.56 164.411 1158.56 166.505C1158.56 168.187 1158.06 169.697 1157.07 171.036C1156.1 172.374 1154.71 173.438 1152.89 174.228C1151.11 174.983 1149 175.36 1146.56 175.36ZM1171.73 160.533C1171.73 157.547 1172.26 154.938 1173.32 152.707C1174.42 150.476 1175.91 148.76 1177.8 147.558C1179.69 146.357 1181.78 145.756 1184.08 145.756C1185.94 145.756 1187.58 146.151 1189.03 146.941C1190.5 147.696 1191.65 148.743 1192.47 150.081V136.901H1202.62V175H1192.47V170.984C1191.69 172.323 1190.57 173.387 1189.13 174.176C1187.69 174.966 1185.99 175.36 1184.03 175.36C1181.73 175.36 1179.64 174.76 1177.75 173.558C1175.9 172.357 1174.42 170.641 1173.32 168.41C1172.26 166.145 1171.73 163.519 1171.73 160.533ZM1192.53 160.533C1192.53 158.679 1192.01 157.22 1190.98 156.156C1189.99 155.092 1188.75 154.56 1187.27 154.56C1185.76 154.56 1184.51 155.092 1183.52 156.156C1182.52 157.186 1182.02 158.645 1182.02 160.533C1182.02 162.386 1182.52 163.862 1183.52 164.96C1184.51 166.024 1185.76 166.556 1187.27 166.556C1188.75 166.556 1189.99 166.024 1190.98 164.96C1192.01 163.896 1192.53 162.42 1192.53 160.533ZM1235.96 160.224C1235.96 161.013 1235.91 161.803 1235.81 162.592H1216.71C1216.81 164.171 1217.24 165.355 1218 166.145C1218.78 166.9 1219.78 167.277 1220.98 167.277C1222.66 167.277 1223.86 166.522 1224.59 165.012H1235.35C1234.9 167.003 1234.02 168.787 1232.72 170.366C1231.45 171.911 1229.84 173.129 1227.88 174.022C1225.92 174.914 1223.76 175.36 1221.39 175.36C1218.54 175.36 1216 174.76 1213.77 173.558C1211.58 172.357 1209.84 170.641 1208.57 168.41C1207.34 166.179 1206.72 163.553 1206.72 160.533C1206.72 157.512 1207.34 154.904 1208.57 152.707C1209.81 150.476 1211.53 148.76 1213.72 147.558C1215.95 146.357 1218.51 145.756 1221.39 145.756C1224.24 145.756 1226.77 146.34 1228.96 147.507C1231.16 148.674 1232.87 150.356 1234.11 152.552C1235.35 154.715 1235.96 157.272 1235.96 160.224ZM1225.67 157.701C1225.67 156.465 1225.25 155.504 1224.43 154.818C1223.61 154.097 1222.58 153.737 1221.34 153.737C1220.11 153.737 1219.09 154.08 1218.3 154.766C1217.51 155.418 1217 156.397 1216.76 157.701H1225.67ZM810.248 210.703C814.057 210.703 817.387 211.475 820.236 213.02C823.119 214.53 825.333 216.658 826.877 219.404C828.422 222.15 829.194 225.29 829.194 228.826C829.194 232.327 828.405 235.45 826.826 238.196C825.281 240.942 823.067 243.104 820.184 244.683C817.335 246.228 814.023 247 810.248 247H795.883V210.703H810.248ZM809.475 238.093C812.427 238.093 814.744 237.286 816.426 235.673C818.108 234.06 818.949 231.778 818.949 228.826C818.949 225.84 818.108 223.54 816.426 221.927C814.744 220.279 812.427 219.455 809.475 219.455H805.974V238.093H809.475ZM861.339 232.224C861.339 233.013 861.287 233.803 861.184 234.592H842.083C842.186 236.171 842.615 237.355 843.371 238.145C844.16 238.9 845.155 239.277 846.357 239.277C848.039 239.277 849.24 238.522 849.961 237.012H860.721C860.275 239.003 859.4 240.787 858.095 242.366C856.825 243.911 855.212 245.129 853.256 246.022C851.299 246.914 849.137 247.36 846.769 247.36C843.92 247.36 841.38 246.76 839.149 245.558C836.952 244.357 835.219 242.641 833.949 240.41C832.713 238.179 832.095 235.553 832.095 232.533C832.095 229.512 832.713 226.904 833.949 224.707C835.184 222.476 836.901 220.76 839.097 219.558C841.328 218.357 843.885 217.756 846.769 217.756C849.617 217.756 852.14 218.34 854.337 219.507C856.534 220.674 858.25 222.356 859.485 224.552C860.721 226.715 861.339 229.272 861.339 232.224ZM851.042 229.701C851.042 228.465 850.63 227.504 849.806 226.818C848.982 226.097 847.953 225.737 846.717 225.737C845.481 225.737 844.469 226.08 843.679 226.766C842.89 227.418 842.375 228.397 842.135 229.701H851.042ZM877.774 247.36C875.165 247.36 872.831 246.931 870.772 246.073C868.746 245.181 867.133 243.98 865.932 242.469C864.765 240.925 864.113 239.191 863.975 237.269H873.758C873.895 238.196 874.324 238.917 875.045 239.432C875.766 239.947 876.658 240.204 877.722 240.204C878.546 240.204 879.198 240.032 879.678 239.689C880.159 239.346 880.399 238.9 880.399 238.35C880.399 237.63 880.005 237.098 879.215 236.754C878.426 236.411 877.121 236.034 875.302 235.622C873.243 235.21 871.527 234.747 870.154 234.232C868.781 233.717 867.579 232.876 866.55 231.709C865.554 230.542 865.057 228.963 865.057 226.972C865.057 225.256 865.52 223.712 866.447 222.339C867.374 220.931 868.729 219.816 870.514 218.992C872.333 218.168 874.513 217.756 877.053 217.756C880.828 217.756 883.797 218.683 885.96 220.537C888.122 222.39 889.375 224.827 889.718 227.848H880.605C880.434 226.921 880.022 226.217 879.37 225.737C878.752 225.222 877.911 224.964 876.847 224.964C876.023 224.964 875.388 225.119 874.942 225.428C874.53 225.737 874.324 226.166 874.324 226.715C874.324 227.401 874.719 227.933 875.508 228.311C876.298 228.654 877.568 229.015 879.318 229.392C881.412 229.838 883.145 230.336 884.518 230.885C885.925 231.434 887.144 232.327 888.174 233.562C889.238 234.764 889.77 236.411 889.77 238.505C889.77 240.187 889.272 241.697 888.276 243.036C887.315 244.374 885.925 245.438 884.106 246.228C882.321 246.983 880.21 247.36 877.774 247.36ZM893.083 232.533C893.083 229.547 893.615 226.938 894.679 224.707C895.777 222.476 897.253 220.76 899.107 219.558C900.995 218.357 903.088 217.756 905.388 217.756C907.379 217.756 909.095 218.151 910.537 218.941C911.978 219.73 913.094 220.794 913.883 222.133V218.117H923.974V247H913.883V242.984C913.094 244.323 911.961 245.387 910.485 246.176C909.044 246.966 907.344 247.36 905.388 247.36C903.088 247.36 900.995 246.76 899.107 245.558C897.253 244.357 895.777 242.641 894.679 240.41C893.615 238.145 893.083 235.519 893.083 232.533ZM913.883 232.533C913.883 230.679 913.368 229.22 912.339 228.156C911.343 227.092 910.108 226.56 908.632 226.56C907.121 226.56 905.869 227.092 904.873 228.156C903.878 229.186 903.38 230.645 903.38 232.533C903.38 234.386 903.878 235.862 904.873 236.96C905.869 238.024 907.121 238.556 908.632 238.556C910.108 238.556 911.343 238.024 912.339 236.96C913.368 235.896 913.883 234.42 913.883 232.533ZM939.816 223.214C940.948 221.566 942.321 220.262 943.934 219.301C945.548 218.34 947.281 217.859 949.134 217.859V228.62H946.303C944.106 228.62 942.476 229.049 941.412 229.907C940.348 230.765 939.816 232.258 939.816 234.386V247H929.724V218.117H939.816V223.214ZM962.843 223.214C963.976 221.566 965.349 220.262 966.962 219.301C968.575 218.34 970.308 217.859 972.162 217.859V228.62H969.33C967.134 228.62 965.503 229.049 964.439 229.907C963.375 230.765 962.843 232.258 962.843 234.386V247H952.752V218.117H962.843V223.214ZM989.217 247.36C986.334 247.36 983.743 246.76 981.443 245.558C979.178 244.357 977.393 242.641 976.088 240.41C974.784 238.179 974.132 235.553 974.132 232.533C974.132 229.547 974.784 226.938 976.088 224.707C977.427 222.476 979.229 220.76 981.494 219.558C983.794 218.357 986.385 217.756 989.269 217.756C992.152 217.756 994.726 218.357 996.991 219.558C999.291 220.76 1001.09 222.476 1002.4 224.707C1003.74 226.938 1004.41 229.547 1004.41 232.533C1004.41 235.519 1003.74 238.145 1002.4 240.41C1001.09 242.641 999.291 244.357 996.991 245.558C994.692 246.76 992.1 247.36 989.217 247.36ZM989.217 238.608C990.624 238.608 991.791 238.093 992.718 237.063C993.679 235.999 994.16 234.489 994.16 232.533C994.16 230.576 993.679 229.083 992.718 228.053C991.791 227.024 990.642 226.509 989.269 226.509C987.896 226.509 986.746 227.024 985.819 228.053C984.892 229.083 984.429 230.576 984.429 232.533C984.429 234.523 984.875 236.034 985.768 237.063C986.66 238.093 987.81 238.608 989.217 238.608ZM1018.6 208.901V247H1008.51V208.901H1018.6ZM1034.44 208.901V247H1024.35V208.901H1034.44ZM1053.62 247.36C1050.74 247.36 1048.15 246.76 1045.85 245.558C1043.58 244.357 1041.8 242.641 1040.5 240.41C1039.19 238.179 1038.54 235.553 1038.54 232.533C1038.54 229.547 1039.19 226.938 1040.5 224.707C1041.83 222.476 1043.64 220.76 1045.9 219.558C1048.2 218.357 1050.79 217.756 1053.68 217.756C1056.56 217.756 1059.13 218.357 1061.4 219.558C1063.7 220.76 1065.5 222.476 1066.8 224.707C1068.14 226.938 1068.81 229.547 1068.81 232.533C1068.81 235.519 1068.14 238.145 1066.8 240.41C1065.5 242.641 1063.7 244.357 1061.4 245.558C1059.1 246.76 1056.51 247.36 1053.62 247.36ZM1053.62 238.608C1055.03 238.608 1056.2 238.093 1057.12 237.063C1058.09 235.999 1058.57 234.489 1058.57 232.533C1058.57 230.576 1058.09 229.083 1057.12 228.053C1056.2 227.024 1055.05 226.509 1053.68 226.509C1052.3 226.509 1051.15 227.024 1050.23 228.053C1049.3 229.083 1048.84 230.576 1048.84 232.533C1048.84 234.523 1049.28 236.034 1050.17 237.063C1051.07 238.093 1052.22 238.608 1053.62 238.608ZM1081.12 232.533C1081.12 229.547 1081.66 226.938 1082.72 224.707C1083.82 222.476 1085.31 220.76 1087.2 219.558C1089.09 218.357 1091.18 217.756 1093.48 217.756C1095.33 217.756 1096.98 218.151 1098.42 218.941C1099.9 219.696 1101.05 220.743 1101.87 222.081V208.901H1112.02V247H1101.87V242.984C1101.08 244.323 1099.97 245.387 1098.53 246.176C1097.08 246.966 1095.39 247.36 1093.43 247.36C1091.13 247.36 1089.04 246.76 1087.15 245.558C1085.29 244.357 1083.82 242.641 1082.72 240.41C1081.66 238.145 1081.12 235.519 1081.12 232.533ZM1101.92 232.533C1101.92 230.679 1101.41 229.22 1100.38 228.156C1099.38 227.092 1098.15 226.56 1096.67 226.56C1095.16 226.56 1093.91 227.092 1092.91 228.156C1091.92 229.186 1091.42 230.645 1091.42 232.533C1091.42 234.386 1091.92 235.862 1092.91 236.96C1093.91 238.024 1095.16 238.556 1096.67 238.556C1098.15 238.556 1099.38 238.024 1100.38 236.96C1101.41 235.896 1101.92 234.42 1101.92 232.533ZM1145.36 232.224C1145.36 233.013 1145.31 233.803 1145.21 234.592H1126.11C1126.21 236.171 1126.64 237.355 1127.39 238.145C1128.18 238.9 1129.18 239.277 1130.38 239.277C1132.06 239.277 1133.26 238.522 1133.98 237.012H1144.74C1144.3 239.003 1143.42 240.787 1142.12 242.366C1140.85 243.911 1139.24 245.129 1137.28 246.022C1135.32 246.914 1133.16 247.36 1130.79 247.36C1127.94 247.36 1125.4 246.76 1123.17 245.558C1120.98 244.357 1119.24 242.641 1117.97 240.41C1116.74 238.179 1116.12 235.553 1116.12 232.533C1116.12 229.512 1116.74 226.904 1117.97 224.707C1119.21 222.476 1120.92 220.76 1123.12 219.558C1125.35 218.357 1127.91 217.756 1130.79 217.756C1133.64 217.756 1136.16 218.34 1138.36 219.507C1140.56 220.674 1142.27 222.356 1143.51 224.552C1144.74 226.715 1145.36 229.272 1145.36 232.224ZM1135.06 229.701C1135.06 228.465 1134.65 227.504 1133.83 226.818C1133.01 226.097 1131.98 225.737 1130.74 225.737C1129.5 225.737 1128.49 226.08 1127.7 226.766C1126.91 227.418 1126.4 228.397 1126.16 229.701H1135.06ZM824.56 294.802C824.56 296.999 824.046 299.007 823.016 300.826C822.02 302.611 820.493 304.052 818.434 305.15C816.409 306.215 813.92 306.747 810.968 306.747H805.974V319H795.883V282.703H810.968C813.886 282.703 816.357 283.218 818.382 284.248C820.442 285.277 821.986 286.702 823.016 288.521C824.046 290.34 824.56 292.434 824.56 294.802ZM809.99 298.715C812.839 298.715 814.263 297.411 814.263 294.802C814.263 292.159 812.839 290.838 809.99 290.838H805.974V298.715H809.99ZM838.706 295.214C839.838 293.566 841.211 292.262 842.824 291.301C844.438 290.34 846.171 289.859 848.024 289.859V300.62H845.193C842.996 300.62 841.366 301.049 840.302 301.907C839.238 302.765 838.706 304.258 838.706 306.386V319H828.614V290.117H838.706V295.214ZM865.08 319.36C862.196 319.36 859.605 318.76 857.305 317.558C855.04 316.357 853.255 314.641 851.951 312.41C850.647 310.179 849.994 307.553 849.994 304.533C849.994 301.547 850.647 298.938 851.951 296.707C853.29 294.476 855.091 292.76 857.357 291.558C859.657 290.357 862.248 289.756 865.131 289.756C868.014 289.756 870.589 290.357 872.854 291.558C875.154 292.76 876.956 294.476 878.26 296.707C879.598 298.938 880.268 301.547 880.268 304.533C880.268 307.519 879.598 310.145 878.26 312.41C876.956 314.641 875.154 316.357 872.854 317.558C870.554 318.76 867.963 319.36 865.08 319.36ZM865.08 310.608C866.487 310.608 867.654 310.093 868.581 309.063C869.542 307.999 870.022 306.489 870.022 304.533C870.022 302.576 869.542 301.083 868.581 300.053C867.654 299.024 866.504 298.509 865.131 298.509C863.758 298.509 862.608 299.024 861.682 300.053C860.755 301.083 860.291 302.576 860.291 304.533C860.291 306.523 860.738 308.034 861.63 309.063C862.523 310.093 863.672 310.608 865.08 310.608ZM915.47 290.117L897.142 332.747H886.175L893.074 317.764L881.233 290.117H892.456L898.532 306.489L904.401 290.117H915.47ZM945.706 304.224C945.706 305.013 945.655 305.803 945.552 306.592H926.451C926.554 308.171 926.983 309.355 927.738 310.145C928.527 310.9 929.523 311.277 930.724 311.277C932.406 311.277 933.607 310.522 934.328 309.012H945.088C944.642 311.003 943.767 312.787 942.463 314.366C941.193 315.911 939.579 317.129 937.623 318.022C935.667 318.914 933.504 319.36 931.136 319.36C928.287 319.36 925.747 318.76 923.516 317.558C921.319 316.357 919.586 314.641 918.316 312.41C917.08 310.179 916.463 307.553 916.463 304.533C916.463 301.512 917.08 298.904 918.316 296.707C919.552 294.476 921.268 292.76 923.465 291.558C925.696 290.357 928.253 289.756 931.136 289.756C933.985 289.756 936.507 290.34 938.704 291.507C940.901 292.674 942.617 294.356 943.853 296.552C945.088 298.715 945.706 301.272 945.706 304.224ZM935.409 301.701C935.409 300.465 934.997 299.504 934.173 298.818C933.35 298.097 932.32 297.737 931.084 297.737C929.849 297.737 928.836 298.08 928.047 298.766C927.257 299.418 926.742 300.397 926.502 301.701H935.409ZM948.188 304.533C948.188 301.547 948.806 298.938 950.042 296.707C951.277 294.476 952.994 292.76 955.19 291.558C957.421 290.357 959.961 289.756 962.81 289.756C966.483 289.756 969.572 290.769 972.077 292.794C974.583 294.785 976.196 297.582 976.917 301.186H966.208C965.59 299.298 964.389 298.354 962.604 298.354C961.334 298.354 960.322 298.886 959.567 299.95C958.846 300.98 958.485 302.508 958.485 304.533C958.485 306.558 958.846 308.102 959.567 309.166C960.322 310.23 961.334 310.762 962.604 310.762C964.423 310.762 965.625 309.818 966.208 307.931H976.917C976.196 311.5 974.583 314.298 972.077 316.323C969.572 318.348 966.483 319.36 962.81 319.36C959.961 319.36 957.421 318.76 955.19 317.558C952.994 316.357 951.277 314.641 950.042 312.41C948.806 310.179 948.188 307.553 948.188 304.533ZM998.151 310.402V319H993.774C986.395 319 982.705 315.345 982.705 308.034V298.509H979.153V290.117H982.705V283.115H992.848V290.117H998.099V298.509H992.848V308.188C992.848 308.978 993.019 309.544 993.363 309.887C993.74 310.23 994.358 310.402 995.216 310.402H998.151ZM1016.22 319.36C1013.33 319.36 1010.74 318.76 1008.44 317.558C1006.18 316.357 1004.39 314.641 1003.09 312.41C1001.78 310.179 1001.13 307.553 1001.13 304.533C1001.13 301.547 1001.78 298.938 1003.09 296.707C1004.43 294.476 1006.23 292.76 1008.49 291.558C1010.79 290.357 1013.38 289.756 1016.27 289.756C1019.15 289.756 1021.73 290.357 1023.99 291.558C1026.29 292.76 1028.09 294.476 1029.4 296.707C1030.74 298.938 1031.4 301.547 1031.4 304.533C1031.4 307.519 1030.74 310.145 1029.4 312.41C1028.09 314.641 1026.29 316.357 1023.99 317.558C1021.69 318.76 1019.1 319.36 1016.22 319.36ZM1016.22 310.608C1017.62 310.608 1018.79 310.093 1019.72 309.063C1020.68 307.999 1021.16 306.489 1021.16 304.533C1021.16 302.576 1020.68 301.083 1019.72 300.053C1018.79 299.024 1017.64 298.509 1016.27 298.509C1014.9 298.509 1013.75 299.024 1012.82 300.053C1011.89 301.083 1011.43 302.576 1011.43 304.533C1011.43 306.523 1011.87 308.034 1012.77 309.063C1013.66 310.093 1014.81 310.608 1016.22 310.608ZM1047.82 319.36C1045.21 319.36 1042.87 318.931 1040.81 318.073C1038.79 317.181 1037.18 315.98 1035.97 314.469C1034.81 312.925 1034.15 311.191 1034.02 309.269H1043.8C1043.94 310.196 1044.37 310.917 1045.09 311.432C1045.81 311.947 1046.7 312.204 1047.76 312.204C1048.59 312.204 1049.24 312.032 1049.72 311.689C1050.2 311.346 1050.44 310.9 1050.44 310.35C1050.44 309.63 1050.05 309.098 1049.26 308.754C1048.47 308.411 1047.16 308.034 1045.34 307.622C1043.28 307.21 1041.57 306.747 1040.2 306.232C1038.82 305.717 1037.62 304.876 1036.59 303.709C1035.6 302.542 1035.1 300.963 1035.1 298.972C1035.1 297.256 1035.56 295.712 1036.49 294.339C1037.42 292.931 1038.77 291.816 1040.56 290.992C1042.38 290.168 1044.55 289.756 1047.09 289.756C1050.87 289.756 1053.84 290.683 1056 292.537C1058.16 294.39 1059.42 296.827 1059.76 299.848H1050.65C1050.48 298.921 1050.06 298.217 1049.41 297.737C1048.79 297.222 1047.95 296.964 1046.89 296.964C1046.06 296.964 1045.43 297.119 1044.98 297.428C1044.57 297.737 1044.37 298.166 1044.37 298.715C1044.37 299.401 1044.76 299.933 1045.55 300.311C1046.34 300.654 1047.61 301.015 1049.36 301.392C1051.45 301.838 1053.19 302.336 1054.56 302.885C1055.97 303.434 1057.19 304.327 1058.22 305.562C1059.28 306.764 1059.81 308.411 1059.81 310.505C1059.81 312.187 1059.31 313.697 1058.32 315.036C1057.36 316.374 1055.97 317.438 1054.15 318.228C1052.36 318.983 1050.25 319.36 1047.82 319.36Z" fill="#FCFAFF"/>
</svg>
