<svg width="512" height="512" viewBox="0 0 512 512" fill="none" xmlns="http://www.w3.org/2000/svg">
<rect x="16" y="16" width="480" height="480" rx="50" fill="#FFBC25"/>
<path d="M225.106 216.103C217.505 216.103 211.32 222.288 211.32 229.893C211.32 237.494 217.505 243.679 225.106 243.679C232.706 243.679 238.891 237.494 238.891 229.893C238.891 222.288 232.706 216.103 225.106 216.103V216.103Z" fill="#FCFAFF"/>
<path d="M171.129 330.022C171.129 337.636 164.957 343.808 157.343 343.808C149.732 343.808 143.56 337.636 143.56 330.022C143.56 322.409 149.732 316.239 157.343 316.239C164.957 316.239 171.129 322.409 171.129 330.022Z" fill="#FCFAFF"/>
<path d="M290.328 291.034C282.723 291.034 276.538 297.219 276.538 304.829C276.538 312.434 282.718 318.619 290.328 318.619C297.928 318.619 304.107 312.434 304.107 304.829C304.107 297.22 297.926 291.034 290.328 291.034Z" fill="#FCFAFF"/>
<path d="M368.452 181.972C368.452 189.588 362.278 195.76 354.662 195.76C347.046 195.76 340.872 189.588 340.872 181.972C340.872 174.356 347.046 168.182 354.662 168.182C362.278 168.182 368.452 174.356 368.452 181.972Z" fill="#FCFAFF"/>
<path d="M379.904 96.0011H132.089C112.19 96.0011 96 112.195 96 132.097V379.907C96 399.81 112.19 416 132.089 416H379.904C399.81 416 416 399.81 416 379.904V132.089C416 112.19 399.81 96 379.904 96V96.0011ZM354.67 210.755C354.13 210.755 353.594 210.706 353.061 210.674L313.291 287.531C316.931 292.357 319.116 298.326 319.116 304.826C319.116 320.696 306.206 333.616 290.338 333.616C274.458 333.616 261.548 320.696 261.548 304.826C261.548 297.266 264.499 290.402 269.273 285.266L240.943 253.907C236.399 256.911 230.959 258.677 225.113 258.677C221.589 258.677 218.229 258.011 215.104 256.846L176.064 308.205C182.214 313.484 186.129 321.301 186.129 330.02C186.129 345.899 173.214 358.81 157.343 358.81C141.473 358.81 128.558 345.899 128.558 330.02C128.558 314.145 141.469 301.235 157.343 301.235C158.997 301.235 160.609 301.404 162.183 301.679L202.872 248.139C198.783 243.168 196.323 236.813 196.323 229.889C196.323 214.014 209.238 201.099 225.108 201.099C240.979 201.099 253.894 214.014 253.894 229.889C253.894 234.445 252.798 238.735 250.91 242.569L282.208 277.219C284.789 276.464 287.514 276.038 290.324 276.038C294.179 276.038 297.86 276.817 301.224 278.199L338.643 205.891C330.948 200.717 325.868 191.931 325.868 181.98C325.868 166.105 338.779 153.19 354.659 153.19C370.533 153.19 383.457 166.094 383.457 181.969C383.459 197.839 370.544 210.754 354.669 210.754L354.67 210.755Z" fill="#FCFAFF"/>
</svg>
